# xmcd
#
# Track frame offsets:
#	150
#	12551
#	26310
#	38038
#	51208
#	63890
#	76687
#	91064
#	104752
#	119557
#	133309
#	146779
#	160821
#	171946
#	185967
#	199807
#	212860
#	225066
#	239669
#	253568
#	267759
#	280987
#	292671
#
# Disc length: 4078 seconds
#
# Revision: 1
# Processed by: cddbd v1.5.1PL2 Copyright (c) Steve Scherf et al.
# Submitted via: audiograbber 1.83.01
#
DISCID=4d0fec17
DTITLE=Ramblin Thomas - Hard Dallas
DYEAR=2000
DGENRE=Blues
TTITLE0=So lonesome
TTITLE1=Hard to rule woman blues
TTITLE2=Lock and key blues
TTITLE3=Sawmill moan
TTITLE4=No baby blues
TTITLE5=Ramblin mind blues
TTITLE6=No job blues
TTITLE7=Back knawing blues
TTITLE8=Jig head blues
TTITLE9=Hard Dallas blues
TTITLE10=Hard Dallas blues 4
TTITLE11=Ramblin man
TTITLE12=poor boy blues
TTITLE13=Good time blues
TTITLE14=New way of living blues
TTITLE15=Ground hog blues
TTITLE16=Shake it ga
TTITLE17=ground hog blues no2
TTITLE18=Little old mama blues
TTITLE19=Down in Texas blues
TTITLE20=My hearts like a rolling stone
TTITLE21=Blue goose blues
TTITLE22=No good woman blues
EXTD=
EXTT0=
EXTT1=
EXTT2=
EXTT3=
EXTT4=
EXTT5=
EXTT6=
EXTT7=
EXTT8=
EXTT9=
EXTT10=
EXTT11=
EXTT12=
EXTT13=
EXTT14=
EXTT15=
EXTT16=
EXTT17=
EXTT18=
EXTT19=
EXTT20=
EXTT21=
EXTT22=
PLAYORDER=
